<svg width="1147" height="300" viewBox="0 0 1147 300" fill="none" xmlns="http://www.w3.org/2000/svg">
<path d="M90.1651 283.093C79.9679 283.093 69.7707 282.262 59.3051 280.6C48.8395 278.938 38.9106 276.168 30.0551 272.014C21.1995 267.859 13.9541 262.319 8.31881 255.395C2.68349 248.193 0 239.329 0 228.804C0 216.617 3.22019 207.476 9.39221 201.66C15.5642 195.843 25.7615 192.796 39.7156 192.796C48.3028 192.796 57.695 193.627 67.8922 195.566C78.0895 197.228 86.6766 198.336 93.3853 198.336C101.167 198.336 107.071 196.951 110.828 194.458C114.585 191.965 116.463 188.641 116.463 184.487C116.463 181.163 115.39 178.393 112.975 176.454C110.56 174.515 106.803 172.299 101.436 170.36C96.0688 168.421 88.5551 166.483 78.8945 163.99C61.7202 160.389 47.7661 155.68 37.0321 149.863C26.2982 144.047 18.5161 136.568 13.9541 127.705C9.12386 118.841 6.70872 108.316 6.70872 95.8516C6.70872 81.7254 9.39221 69.261 14.4908 59.0126C19.8578 48.4872 26.8349 39.9007 35.422 32.6991C44.0092 25.4975 53.9381 19.6808 64.672 15.2491C75.406 10.8173 86.4083 7.49355 97.9473 5.55466C109.218 3.61577 119.952 2.50781 129.881 2.50781C152.422 2.50781 170.401 6.66259 184.087 14.6951C197.505 22.7277 204.213 34.361 204.213 49.5952C204.213 61.5055 200.456 71.1999 193.479 78.6785C186.234 86.1571 174.963 89.7579 159.399 89.7579C154.3 89.7579 148.128 89.4809 140.883 88.927C133.638 88.373 126.929 87.542 119.952 86.711C113.78 85.6031 107.876 85.0491 102.778 85.0491C94.4587 85.0491 88.2867 86.1571 84.2615 88.373C80.2363 90.5889 78.0895 94.1896 78.0895 98.8984C78.0895 101.391 78.8945 103.884 80.7729 106.377C82.6514 108.87 86.1399 111.086 91.5069 113.579C96.8739 116.071 104.656 118.564 114.853 121.334C135.248 126.874 151.349 133.244 163.424 140.446C175.5 147.925 184.087 156.234 188.917 166.206C193.748 176.177 196.431 186.979 196.431 199.444C196.431 215.786 191.869 230.466 183.014 243.207C174.158 255.949 161.546 265.643 145.713 272.568C129.881 279.769 111.365 283.093 90.1651 283.093Z" fill="#9ABCFF"/>
<path d="M247.345 299.996C235.001 299.996 225.609 296.119 219.168 288.363C212.728 280.607 209.508 266.758 209.508 246.261C209.508 236.013 210.581 224.934 212.728 212.469C214.875 200.005 217.827 186.987 222.12 173.138C226.414 159.288 231.512 145.162 237.684 131.036C243.856 116.633 250.834 102.507 258.616 88.3804C267.739 72.0383 276.595 59.02 285.182 49.0486C293.769 39.0771 302.625 31.8755 312.017 27.1668C321.409 22.4581 331.606 20.2422 342.877 20.2422C357.905 20.2422 371.322 26.6128 383.129 39.0771C394.937 51.5414 404.597 70.0994 412.111 94.751C416.405 108.046 419.893 122.449 422.577 137.13C425.26 152.087 427.675 167.044 429.017 182.278C430.627 197.512 431.164 212.469 431.164 227.15C431.164 250.416 427.139 267.312 419.088 277.284C411.038 287.532 399.767 292.518 385.276 292.518C372.664 292.518 362.735 288.64 355.758 280.884C348.512 273.129 343.95 260.388 342.34 242.661C341.267 233.243 340.73 223.549 340.73 213.854C340.73 203.883 341.267 194.465 342.34 185.602L361.393 219.948C354.416 222.164 346.097 223.549 335.9 224.38C325.703 224.934 315.237 224.657 304.235 223.549C293.233 222.441 283.035 220.225 273.375 217.178L302.893 183.386C302.356 195.296 301.551 206.93 300.21 218.286C298.868 229.642 297.526 239.891 295.648 249.308C293.769 260.111 290.817 269.528 287.061 277.284C283.304 285.039 278.205 290.856 271.765 294.457C265.324 298.057 257.274 299.996 247.345 299.996ZM323.288 168.706C335.632 168.706 345.024 165.105 351.733 158.18C358.441 151.256 361.662 141.284 361.662 128.266C361.662 122.449 361.125 116.91 359.783 111.37C358.441 105.83 356.563 101.122 354.148 96.6899C351.464 92.2581 348.512 88.9343 344.756 86.7184C340.999 84.2256 336.973 83.1176 332.68 83.1176C327.045 83.1176 321.678 84.7796 317.116 88.3804C312.285 91.9812 308.26 96.6899 304.772 102.507C301.283 108.323 298.6 114.417 296.721 121.065C294.843 127.712 293.769 133.806 293.769 139.345C293.769 147.932 296.453 154.857 301.551 160.396C306.65 165.936 313.895 168.706 323.288 168.706Z" fill="#9ABCFF"/>
<path d="M559.199 4.71875C590.596 4.71875 613.674 12.7513 628.433 28.5394C643.192 44.6045 650.438 65.3783 650.438 91.4148C650.438 111.081 646.681 128.254 638.899 142.934C631.117 157.614 620.651 168.693 607.502 176.726C594.353 184.759 579.325 188.636 562.688 188.636C556.247 188.636 549.539 188.082 542.562 186.697C535.316 185.313 528.071 183.097 520.557 179.773L529.681 170.909C532.096 175.895 534.243 182.266 536.121 190.021C538 197.5 539.341 205.532 540.415 213.565C541.488 221.597 542.025 229.076 542.025 235.724C542.025 254.005 538.536 268.131 531.828 277.825C525.119 287.52 514.922 292.505 501.504 292.505C488.355 292.505 477.89 288.351 470.644 280.041C463.399 271.732 458.3 258.713 455.348 240.709C452.396 222.705 451.055 198.885 451.055 169.524C451.055 141.272 453.201 117.728 457.763 98.6164C462.325 79.5045 467.424 63.9934 473.596 52.083C481.378 37.9568 492.38 26.6005 506.334 17.737C520.289 8.8735 538 4.71875 559.199 4.71875ZM554.369 144.873C567.25 144.873 577.715 140.441 585.766 131.301C594.085 122.437 598.11 109.973 598.11 94.1847C598.11 83.1053 595.695 73.6878 590.864 66.2092C586.034 58.7307 577.984 55.1299 566.445 55.1299C557.589 55.1299 549.807 57.6228 543.367 62.3315C536.926 67.0402 531.828 73.4109 528.339 81.4434C524.851 89.476 523.24 98.3394 523.24 107.757C523.24 118.559 525.924 127.423 531.023 134.347C536.39 141.272 543.903 144.873 554.369 144.873Z" fill="#9ABCFF"/>
<path d="M722.376 2.49286C733.915 2.49286 742.77 5.81669 748.942 12.4643C755.114 19.1119 758.066 29.0834 758.066 42.3786C758.066 53.735 756.456 66.7532 753.504 80.8794C750.552 95.2826 745.99 108.855 740.355 121.873L730.158 116.056C746.259 111.625 763.165 109.686 780.339 109.963C797.513 110.24 813.077 112.733 826.763 117.441L816.029 119.103C812.541 105.531 810.126 91.6818 808.516 78.1096C806.905 64.5373 806.1 52.35 806.1 41.5477C806.1 27.6984 809.32 17.1731 815.761 10.2484C822.201 3.32384 831.593 0 844.206 0C856.55 0 865.942 3.60077 872.651 10.5254C879.36 17.45 884.19 27.9754 886.873 41.8246C889.288 53.458 891.435 67.8612 892.777 84.7572C894.387 101.653 894.924 118.826 894.924 135.999C894.924 153.172 894.387 170.622 893.314 188.349C892.24 206.076 890.362 222.418 887.947 237.653C885.263 253.995 880.433 265.628 873.456 272.83C866.479 280.031 856.282 283.632 842.864 283.632C828.642 283.632 818.444 279.754 812.004 271.999C805.564 264.243 802.612 251.502 802.612 233.498C802.612 221.034 803.685 208.015 806.1 194.443C808.516 180.871 811.736 167.299 816.298 154.003L828.105 163.421C813.346 167.576 797.782 169.514 781.144 169.237C764.506 169.237 748.405 167.022 732.573 163.421L737.671 152.895C743.575 166.468 748.405 180.317 752.431 194.72C756.456 209.123 758.334 223.526 758.334 238.207C758.334 254.272 754.577 266.182 746.795 273.661C739.013 281.139 728.548 284.74 715.667 284.74C704.665 284.74 695.541 281.97 688.832 276.153C682.123 270.337 677.293 260.365 674.341 245.685C672.731 235.16 671.121 222.418 670.048 206.63C668.974 191.119 668.438 174.5 668.438 157.327C668.438 136.276 669.243 116.056 671.121 96.3905C672.999 76.7247 675.415 59.8286 678.635 45.1484C681.587 31.8532 686.417 21.3278 693.394 13.5722C700.371 6.37063 710.032 2.49286 722.376 2.49286Z" fill="#9ABCFF"/>
<path d="M1014.38 285.287C1001.5 285.287 991.302 281.964 983.251 275.593C975.201 269.222 971.175 257.589 971.175 241.247C971.175 230.722 972.785 220.196 976.274 209.394C979.763 198.591 984.324 188.62 990.496 179.479C996.668 170.339 1003.11 162.583 1010.09 156.49L1008.74 167.015C985.666 155.105 966.882 143.748 952.391 132.946C937.9 122.144 927.434 111.341 920.726 100.816C914.017 90.2905 910.797 79.4881 910.797 68.4087C910.797 58.4373 912.944 50.1277 916.969 42.9261C920.994 35.7246 926.361 30.1849 933.07 26.3071C939.779 22.4294 946.756 20.4904 954.001 20.4904C964.198 20.4904 974.127 24.3682 982.983 32.4008C992.107 40.1563 1000.43 52.0667 1007.67 67.5778C1014.92 83.0889 1021.36 102.478 1026.46 125.468H1028.07C1033.97 96.6612 1040.68 72.8405 1048.19 54.5595C1055.71 36.2785 1063.76 22.7063 1072.34 14.1198C1080.93 5.53329 1089.52 1.10156 1098.1 1.10156C1105.89 1.10156 1113.67 3.31744 1120.91 8.02617C1128.16 12.7349 1134.33 19.1055 1139.43 27.692C1144.26 36.2785 1146.68 46.25 1146.68 57.8833C1146.68 71.7325 1142.65 85.3048 1134.33 98.6C1126.01 111.895 1114.47 124.083 1099.18 135.993C1083.88 147.903 1065.63 158.152 1044.43 167.569L1049.53 160.368C1053.02 167.292 1055.97 174.771 1058.66 183.08C1061.34 191.39 1063.49 199.699 1065.1 208.286C1066.71 216.872 1067.51 224.628 1067.51 231.553C1067.51 249.003 1062.68 262.298 1052.75 271.715C1042.82 280.856 1030.21 285.287 1014.38 285.287Z" fill="#9ABCFF"/>
</svg>
