<svg width="588" height="394" viewBox="0 0 588 394" fill="none" xmlns="http://www.w3.org/2000/svg">
<path d="M50.4495 393.709C33.9908 393.709 21.4679 388.538 12.8807 378.198C4.29357 367.857 0 349.391 0 322.062C0 308.398 1.43119 293.625 4.29357 277.006C7.15596 260.387 11.0918 243.029 16.8165 224.564C22.5413 206.098 29.3395 187.263 37.5688 168.428C45.7982 149.224 55.1009 130.389 65.4771 111.554C77.6422 89.7646 89.4495 72.4069 100.899 59.1117C112.349 45.8164 124.156 36.2142 136.679 29.9359C149.202 23.6576 162.798 20.7031 177.826 20.7031C197.862 20.7031 215.752 29.1973 231.495 45.8164C247.239 62.4354 260.119 87.1794 270.138 120.048C275.862 137.775 280.514 156.979 284.092 176.553C287.67 196.496 290.89 216.439 292.679 236.751C294.826 257.063 295.541 277.006 295.541 296.58C295.541 327.602 290.174 350.13 279.44 363.425C268.706 377.09 253.679 383.737 234.358 383.737C217.541 383.737 204.303 378.567 195 368.226C185.339 357.885 179.257 340.897 177.11 317.261C175.679 304.704 174.963 291.778 174.963 278.853C174.963 265.557 175.679 253.001 177.11 241.183L202.514 286.977C193.211 289.932 182.119 291.778 168.523 292.886C154.927 293.625 140.972 293.256 126.303 291.778C111.633 290.301 98.0367 287.347 85.156 283.284L124.514 238.228C123.798 254.109 122.725 269.62 120.936 284.762C119.147 299.903 117.358 313.568 114.853 326.125C112.349 340.528 108.413 353.084 103.404 363.425C98.3945 373.766 91.5963 381.521 83.0092 386.322C74.422 391.123 63.6881 393.709 50.4495 393.709ZM151.706 218.655C168.165 218.655 180.688 213.854 189.633 204.621C198.578 195.388 202.872 182.093 202.872 164.735C202.872 156.979 202.156 149.593 200.367 142.207C198.578 134.821 196.073 128.542 192.853 122.633C189.275 116.724 185.339 112.293 180.33 109.338C175.321 106.014 169.954 104.537 164.229 104.537C156.716 104.537 149.56 106.753 143.477 111.554C137.037 116.355 131.67 122.633 127.018 130.389C122.367 138.145 118.789 146.269 116.284 155.133C113.78 163.996 112.349 172.121 112.349 179.508C112.349 190.956 115.927 200.189 122.725 207.575C129.523 214.962 139.184 218.655 151.706 218.655Z" fill="#9ABCFF"/>
<path d="M466.255 0C508.118 0 538.888 10.7101 558.567 31.7609C578.246 53.181 587.907 80.8794 587.907 115.595C587.907 141.816 582.897 164.713 572.521 184.287C562.145 203.86 548.191 218.633 530.659 229.343C513.127 240.053 493.09 245.223 470.907 245.223C462.319 245.223 453.374 244.485 444.072 242.638C434.411 240.792 424.751 237.837 414.732 233.405L426.897 221.587C430.118 228.235 432.98 236.729 435.485 247.07C437.989 257.041 439.778 267.752 441.209 278.462C442.641 289.172 443.356 299.143 443.356 308.007C443.356 332.381 438.705 351.216 429.76 364.142C420.815 377.068 407.218 383.716 389.329 383.716C371.796 383.716 357.842 378.176 348.182 367.097C338.521 356.017 331.723 338.659 327.787 314.654C323.851 290.649 322.062 258.888 322.062 219.741C322.062 182.071 324.925 150.679 331.007 125.197C337.09 99.7143 343.888 79.0328 352.118 63.1524C362.494 44.3175 377.163 29.1757 395.769 17.3577C414.374 5.53966 437.989 0 466.255 0ZM459.815 186.872C476.989 186.872 490.943 180.963 501.677 168.776C512.769 156.958 518.136 140.339 518.136 119.288C518.136 104.515 514.916 91.9588 508.475 81.9873C502.035 72.0159 491.301 67.2148 475.916 67.2148C464.108 67.2148 453.732 70.5387 445.145 76.817C436.558 83.0953 429.76 91.5895 425.108 102.3C420.457 113.01 418.31 124.828 418.31 137.384C418.31 151.787 421.888 163.605 428.686 172.838C435.842 182.071 445.861 186.872 459.815 186.872Z" fill="#9ABCFF"/>
</svg>
